<svg width="1600" height="900" viewBox="0 0 1600 900" fill="none" xmlns="http://www.w3.org/2000/svg">
  <rect width="1600" height="900" fill="#2A2B31"/>
  <rect y="560" width="1600" height="340" fill="#1A1B20"/>
  <rect x="120" y="160" width="330" height="220" rx="16" fill="#3A3B43"/>
  <rect x="530" y="170" width="290" height="180" rx="16" fill="#3A3B43"/>
  <rect x="920" y="145" width="260" height="170" rx="16" fill="#3A3B43"/>
  <rect x="1240" y="180" width="230" height="190" rx="16" fill="#3A3B43"/>
  <path d="M420 560H1130C1162 560 1190 579 1204 608L1250 700H320L356 615C369 583 398 560 420 560Z" fill="#111827"/>
  <path d="M505 542H1030L1120 610H430L505 542Z" fill="#1F2937"/>
  <rect x="550" y="565" width="180" height="70" rx="10" fill="#334155"/>
  <rect x="782" y="565" width="200" height="70" rx="10" fill="#334155"/>
  <circle cx="530" cy="700" r="72" fill="#09090B"/>
  <circle cx="530" cy="700" r="36" fill="#6B7280"/>
  <circle cx="1050" cy="700" r="72" fill="#09090B"/>
  <circle cx="1050" cy="700" r="36" fill="#6B7280"/>
  <ellipse cx="790" cy="760" rx="510" ry="38" fill="#000000" fill-opacity="0.35"/>
  <text x="100" y="95" fill="#D1D5DB" font-size="54" font-family="Arial, sans-serif">Avant  Parking banal</text>
</svg>
